<svg clip-rule="evenodd" fill-rule="evenodd" stroke-linejoin="round" stroke-miterlimit="1.41421" viewBox="0 0 1000 300" xmlns="http://www.w3.org/2000/svg"><g fill="#fff" fill-rule="nonzero"><path d="m258.611 35h-217.222c-3.578 0-6.389 2.811-6.389 6.389v217.222c0 3.578 2.811 6.389 6.389 6.389h217.222c3.578 0 6.389-2.811 6.389-6.389v-217.222c0-3.578-2.811-6.389-6.389-6.389zm-168.411 217.222h-42.422v-204.444h31.944v115c0 1.789 1.534 3.322 3.322 3.322h7.412v86.122zm54.433 0h-43.444v-86.122h7.411c1.789 0 3.322-1.533 3.322-3.322v-115h22.489v115c0 1.789 1.533 3.322 3.322 3.322h7.411v86.122zm54.178 0h-43.189v-86.122h7.156c1.789 0 3.322-1.533 3.322-3.322v-115h22.233v115c0 1.789 1.534 3.322 3.323 3.322h7.155zm53.411 0h-42.422v-86.122h7.411c1.789 0 3.322-1.533 3.322-3.322v-115h31.689z"/><path d="m430.446 182.422c0 5.794-1.107 11.23-3.32 16.308-2.214 5.079-5.225 9.522-9.033 13.331-3.809 3.808-8.252 6.819-13.33 9.033-5.078 2.213-10.515 3.32-16.309 3.32h-70.019v-140.039h70.019c5.794 0 11.231 1.107 16.309 3.32 5.078 2.214 9.521 5.225 13.33 9.034 3.808 3.808 6.819 8.251 9.033 13.33 2.213 5.078 3.32 10.514 3.32 16.308 0 2.604-.358 5.274-1.074 8.008s-1.725 5.371-3.027 7.91-2.865 4.85-4.688 6.934c-1.823 2.083-3.841 3.808-6.054 5.176 2.278 1.237 4.329 2.913 6.152 5.029s3.385 4.443 4.687 6.982 2.295 5.192 2.979 7.959c.683 2.767 1.025 5.453 1.025 8.057zm-83.984 13.965h41.992c1.953 0 3.776-.358 5.469-1.074 1.693-.717 3.174-1.709 4.443-2.979 1.27-1.27 2.263-2.751 2.979-4.443.716-1.693 1.074-3.516 1.074-5.469s-.358-3.776-1.074-5.469-1.709-3.174-2.979-4.443c-1.269-1.27-2.75-2.263-4.443-2.979s-3.516-1.074-5.469-1.074h-41.992zm0-55.957h41.992c1.953 0 3.776-.358 5.469-1.075 1.693-.716 3.174-1.709 4.443-2.978 1.27-1.27 2.263-2.767 2.979-4.492s1.074-3.565 1.074-5.518-.358-3.776-1.074-5.469c-.716-1.692-1.709-3.173-2.979-4.443-1.269-1.269-2.75-2.262-4.443-2.978-1.693-.717-3.516-1.075-5.469-1.075h-41.992z"/><path d="m480.251 91.406c0 2.474-.472 4.785-1.416 6.934-.944 2.148-2.23 4.02-3.857 5.615-1.628 1.595-3.532 2.865-5.713 3.809s-4.509 1.416-6.983 1.416-4.801-.472-6.982-1.416-4.069-2.214-5.664-3.809-2.865-3.467-3.809-5.615c-.944-2.149-1.416-4.46-1.416-6.934 0-2.409.472-4.704 1.416-6.885s2.214-4.069 3.809-5.664 3.483-2.864 5.664-3.808 4.508-1.416 6.982-1.416 4.802.472 6.983 1.416 4.085 2.213 5.713 3.808c1.627 1.595 2.913 3.483 3.857 5.664s1.416 4.476 1.416 6.885zm-4.59 133.008h-26.855v-104.59h26.855z"/><path d="m548.415 224.414c-6.445 0-12.5-1.221-18.164-3.662s-10.628-5.794-14.893-10.059c-4.264-4.264-7.617-9.228-10.058-14.892-2.442-5.664-3.662-11.719-3.662-18.164v-31.055h-12.989v-26.562h12.989v-41.797h26.562v41.797h40.43v26.562h-40.43v31.055c0 2.799.521 5.42 1.563 7.861 1.041 2.441 2.474 4.574 4.297 6.397 1.822 1.822 3.971 3.271 6.445 4.345s5.111 1.612 7.91 1.612h20.215v26.562z"/><path d="m725.368 224.414h-27.93v-100c0-1.953-.374-3.776-1.123-5.469-.748-1.692-1.757-3.174-3.027-4.443-1.269-1.27-2.751-2.262-4.443-2.979-1.693-.716-3.516-1.074-5.469-1.074s-3.776.358-5.469 1.074c-1.693.717-3.174 1.709-4.443 2.979-1.27 1.269-2.263 2.751-2.979 4.443-.716 1.693-1.074 3.516-1.074 5.469v100h-28.027v-100c0-1.953-.358-3.776-1.074-5.469-.717-1.692-1.709-3.174-2.979-4.443-1.27-1.27-2.751-2.262-4.443-2.979-1.693-.716-3.516-1.074-5.469-1.074s-3.776.358-5.469 1.074c-1.693.717-3.174 1.709-4.443 2.979-1.27 1.269-2.263 2.751-2.979 4.443-.716 1.693-1.074 3.516-1.074 5.469v100h-28.027v-100c0-5.794 1.09-11.247 3.271-16.357 2.181-5.111 5.176-9.571 8.985-13.379 3.808-3.809 8.268-6.804 13.378-8.985 5.111-2.181 10.564-3.271 16.358-3.271 5.208 0 10.221.928 15.039 2.783 4.818 1.856 9.147 4.541 12.988 8.057 3.841-3.516 8.155-6.201 12.94-8.057 4.785-1.855 9.782-2.783 14.99-2.783 5.794 0 11.247 1.09 16.357 3.271 5.111 2.181 9.571 5.176 13.379 8.985 3.809 3.808 6.804 8.268 8.985 13.379 2.181 5.11 3.271 10.563 3.271 16.357z"/><path d="m778.981 91.406c0 2.474-.472 4.785-1.416 6.934-.944 2.148-2.229 4.02-3.857 5.615s-3.532 2.865-5.713 3.809-4.508 1.416-6.982 1.416-4.802-.472-6.983-1.416-4.069-2.214-5.664-3.809-2.864-3.467-3.808-5.615c-.944-2.149-1.416-4.46-1.416-6.934 0-2.409.472-4.704 1.416-6.885s2.213-4.069 3.808-5.664 3.483-2.864 5.664-3.808 4.509-1.416 6.983-1.416 4.801.472 6.982 1.416 4.085 2.213 5.713 3.808 2.913 3.483 3.857 5.664 1.416 4.476 1.416 6.885zm-4.589 133.008h-26.856v-104.59h26.856z"/><path d="m895.778 224.414h-6.445l-10.352-14.355c-2.539 2.278-5.224 4.41-8.056 6.396s-5.811 3.711-8.936 5.176-6.331 2.62-9.619 3.467c-3.288.846-6.624 1.269-10.01 1.269-7.356 0-14.274-1.383-20.752-4.15-6.477-2.767-12.142-6.608-16.992-11.524-4.85-4.915-8.675-10.742-11.474-17.48-2.8-6.738-4.2-14.079-4.2-22.022 0-7.877 1.4-15.201 4.2-21.972 2.799-6.771 6.624-12.63 11.474-17.578s10.515-8.822 16.992-11.621c6.478-2.8 13.396-4.2 20.752-4.2 2.344 0 4.769.196 7.276.586 2.506.391 4.948 1.026 7.324 1.905 2.376.878 4.606 2.034 6.689 3.466 2.084 1.433 3.842 3.19 5.274 5.274v-48.828h26.855zm-26.855-53.223c0-3.645-.7-7.177-2.1-10.595s-3.304-6.446-5.713-9.082c-2.409-2.637-5.224-4.753-8.447-6.348s-6.657-2.393-10.303-2.393-7.08.651-10.302 1.954c-3.223 1.302-6.023 3.173-8.399 5.615-2.376 2.441-4.248 5.42-5.615 8.935-1.367 3.516-2.051 7.487-2.051 11.914 0 3.842.684 7.487 2.051 10.938 1.367 3.45 3.239 6.478 5.615 9.082s5.176 4.655 8.399 6.152c3.222 1.498 6.656 2.246 10.302 2.246s7.08-.797 10.303-2.392 6.038-3.711 8.447-6.348 4.313-5.664 5.713-9.082 2.1-6.95 2.1-10.596z"/><path d="m947.536 91.406c0 2.474-.472 4.785-1.416 6.934-.944 2.148-2.23 4.02-3.857 5.615-1.628 1.595-3.532 2.865-5.713 3.809s-4.509 1.416-6.983 1.416-4.801-.472-6.982-1.416-4.069-2.214-5.664-3.809-2.865-3.467-3.809-5.615c-.944-2.149-1.416-4.46-1.416-6.934 0-2.409.472-4.704 1.416-6.885s2.214-4.069 3.809-5.664 3.483-2.864 5.664-3.808 4.508-1.416 6.982-1.416 4.802.472 6.983 1.416 4.085 2.213 5.713 3.808c1.627 1.595 2.913 3.483 3.857 5.664s1.416 4.476 1.416 6.885zm-4.59 133.008h-26.855v-104.59h26.855z"/></g></svg>