<svg clip-rule="evenodd" fill-rule="evenodd" stroke-linejoin="round" stroke-miterlimit="1.414" viewBox="0 0 1000 300" xmlns="http://www.w3.org/2000/svg"><g fill="#fff" fill-rule="nonzero"><path d="M258.611 35H41.389C37.811 35 35 37.811 35 41.389v217.222c0 3.578 2.811 6.389 6.389 6.389h217.222c3.578 0 6.389-2.811 6.389-6.389V41.389c0-3.578-2.811-6.389-6.389-6.389zM90.2 252.222H47.778V47.778h31.944v115c0 1.789 1.534 3.322 3.322 3.322h7.412v86.122zm54.433 0h-43.444V166.1h7.411c1.789 0 3.322-1.533 3.322-3.322v-115h22.489v115c0 1.789 1.533 3.322 3.322 3.322h7.411v86.122zm54.178 0h-43.189V166.1h7.156c1.789 0 3.322-1.533 3.322-3.322v-115h22.233v115c0 1.789 1.534 3.322 3.323 3.322h7.155zm53.411 0H209.8V166.1h7.411c1.789 0 3.322-1.533 3.322-3.322v-115h31.689zm195.69-69.8c0 5.794-1.107 11.23-3.321 16.308-2.213 5.079-5.224 9.522-9.033 13.331-3.808 3.808-8.252 6.819-13.33 9.033-5.078 2.213-10.514 3.32-16.308 3.32H335.9V84.375h70.02c5.794 0 11.23 1.107 16.308 3.32 5.078 2.214 9.522 5.225 13.33 9.034 3.809 3.808 6.82 8.251 9.033 13.33 2.214 5.078 3.321 10.514 3.321 16.308 0 2.604-.358 5.274-1.075 8.008-.716 2.734-1.725 5.371-3.027 7.91s-2.864 4.85-4.687 6.934c-1.823 2.083-3.841 3.808-6.055 5.176 2.279 1.237 4.329 2.913 6.152 5.029s3.386 4.443 4.688 6.982 2.295 5.192 2.978 7.959c.684 2.767 1.026 5.453 1.026 8.057zm-83.985 13.965h41.993c1.953 0 3.776-.358 5.468-1.074a13.86 13.86 0 0 0 4.444-2.979 13.864 13.864 0 0 0 2.978-4.443c.716-1.693 1.074-3.516 1.074-5.469s-.358-3.776-1.074-5.469-1.709-3.174-2.978-4.443a13.844 13.844 0 0 0-4.444-2.979c-1.692-.716-3.515-1.074-5.468-1.074h-41.993zm0-55.957h41.993c1.953 0 3.776-.358 5.468-1.075a13.858 13.858 0 0 0 4.444-2.978c1.269-1.27 2.262-2.767 2.978-4.492s1.074-3.565 1.074-5.518-.358-3.776-1.074-5.469a13.864 13.864 0 0 0-2.978-4.443 13.858 13.858 0 0 0-4.444-2.978c-1.692-.717-3.515-1.075-5.468-1.075h-41.993zm133.789-49.024c0 2.474-.472 4.785-1.416 6.934-.944 2.148-2.229 4.02-3.857 5.615s-3.532 2.865-5.713 3.809-4.508 1.416-6.982 1.416-4.802-.472-6.983-1.416-4.069-2.214-5.664-3.809-2.864-3.467-3.808-5.615c-.944-2.149-1.416-4.46-1.416-6.934 0-2.409.472-4.704 1.416-6.885s2.213-4.069 3.808-5.664 3.483-2.864 5.664-3.808 4.509-1.416 6.983-1.416 4.801.472 6.982 1.416 4.085 2.213 5.713 3.808 2.913 3.483 3.857 5.664 1.416 4.476 1.416 6.885zm-4.589 133.008h-26.856v-104.59h26.856zm72.753 0c-6.445 0-12.5-1.221-18.164-3.662s-10.628-5.794-14.892-10.059c-4.264-4.264-7.617-9.228-10.059-14.892-2.441-5.664-3.662-11.719-3.662-18.164v-31.055h-12.988V120.02h12.988V78.223h26.563v41.797h40.429v26.562h-40.429v31.055c0 2.799.52 5.42 1.562 7.861s2.474 4.574 4.297 6.397c1.823 1.822 3.971 3.271 6.445 4.345s5.111 1.612 7.91 1.612h20.215v26.562zm176.954 0h-27.93v-100c0-1.953-.374-3.776-1.123-5.469a14.549 14.549 0 0 0-3.027-4.443 13.86 13.86 0 0 0-4.444-2.979c-1.693-.716-3.515-1.074-5.469-1.074-1.953 0-3.776.358-5.468 1.074a13.86 13.86 0 0 0-4.444 2.979 13.854 13.854 0 0 0-2.978 4.443c-.716 1.693-1.074 3.516-1.074 5.469v100h-28.028v-100c0-1.953-.358-3.776-1.074-5.469a13.84 13.84 0 0 0-2.979-4.443 13.845 13.845 0 0 0-4.443-2.979c-1.693-.716-3.516-1.074-5.469-1.074s-3.776.358-5.468 1.074a13.86 13.86 0 0 0-4.444 2.979 13.854 13.854 0 0 0-2.978 4.443c-.716 1.693-1.074 3.516-1.074 5.469v100h-28.028v-100c0-5.794 1.091-11.247 3.272-16.357 2.181-5.111 5.175-9.571 8.984-13.379 3.809-3.809 8.268-6.804 13.379-8.985s10.563-3.271 16.357-3.271c5.209 0 10.222.928 15.039 2.783a40.803 40.803 0 0 1 12.989 8.057c3.841-3.516 8.154-6.201 12.939-8.057 4.785-1.855 9.782-2.783 14.99-2.783 5.795 0 11.247 1.09 16.358 3.271s9.57 5.176 13.379 8.985c3.808 3.808 6.803 8.268 8.984 13.379 2.181 5.11 3.272 10.563 3.272 16.357zm53.613-133.008c0 2.474-.472 4.785-1.416 6.934a17.806 17.806 0 0 1-3.858 5.615c-1.627 1.595-3.531 2.865-5.712 3.809s-4.509 1.416-6.983 1.416-4.801-.472-6.982-1.416-4.069-2.214-5.664-3.809-2.865-3.467-3.809-5.615c-.944-2.149-1.416-4.46-1.416-6.934 0-2.409.472-4.704 1.416-6.885s2.214-4.069 3.809-5.664 3.483-2.864 5.664-3.808 4.508-1.416 6.982-1.416 4.802.472 6.983 1.416 4.085 2.213 5.712 3.808c1.628 1.595 2.914 3.483 3.858 5.664s1.416 4.476 1.416 6.885zm-4.59 133.008h-26.855v-104.59h26.855zm121.387 0h-6.446l-10.351-14.355c-2.539 2.278-5.225 4.41-8.057 6.396s-5.81 3.711-8.935 5.176-6.332 2.62-9.619 3.467a40.016 40.016 0 0 1-10.01 1.269c-7.357 0-14.274-1.383-20.752-4.15s-12.142-6.608-16.992-11.524c-4.851-4.915-8.675-10.742-11.475-17.48-2.799-6.738-4.199-14.079-4.199-22.022 0-7.877 1.4-15.201 4.199-21.972 2.8-6.771 6.624-12.63 11.475-17.578 4.85-4.948 10.514-8.822 16.992-11.621 6.478-2.8 13.395-4.2 20.752-4.2 2.344 0 4.769.196 7.275.586a37.877 37.877 0 0 1 7.324 1.905 30.29 30.29 0 0 1 6.69 3.466 20.31 20.31 0 0 1 5.273 5.274V78.223h26.856zm-26.856-53.223c0-3.645-.7-7.177-2.099-10.595-1.4-3.418-3.304-6.446-5.713-9.082a28.411 28.411 0 0 0-8.447-6.348c-3.223-1.595-6.657-2.393-10.303-2.393s-7.08.651-10.303 1.954c-3.223 1.302-6.022 3.173-8.398 5.615-2.377 2.441-4.248 5.42-5.616 8.935-1.367 3.516-2.05 7.487-2.05 11.914 0 3.842.683 7.487 2.05 10.938 1.368 3.45 3.239 6.478 5.616 9.082a26.184 26.184 0 0 0 8.398 6.152c3.223 1.498 6.657 2.246 10.303 2.246s7.08-.797 10.303-2.392c3.222-1.595 6.038-3.711 8.447-6.348s4.313-5.664 5.713-9.082a27.72 27.72 0 0 0 2.099-10.596zm78.614-79.785c0 2.474-.472 4.785-1.416 6.934a17.806 17.806 0 0 1-3.858 5.615c-1.627 1.595-3.532 2.865-5.713 3.809s-4.508 1.416-6.982 1.416-4.802-.472-6.983-1.416-4.069-2.214-5.664-3.809-2.864-3.467-3.808-5.615c-.944-2.149-1.416-4.46-1.416-6.934 0-2.409.472-4.704 1.416-6.885s2.213-4.069 3.808-5.664 3.483-2.864 5.664-3.808 4.509-1.416 6.983-1.416 4.801.472 6.982 1.416 4.086 2.213 5.713 3.808c1.628 1.595 2.914 3.483 3.858 5.664s1.416 4.476 1.416 6.885zm-4.59 133.008h-26.856v-104.59h26.856z"/></g></svg>