<svg clip-rule="evenodd" fill-rule="evenodd" stroke-linejoin="round" stroke-miterlimit="1.41421" viewBox="0 0 1200 300" xmlns="http://www.w3.org/2000/svg"><g fill="#fff" fill-rule="nonzero"><path d="m549.073 188.906c0 6.953-1.328 13.477-3.984 19.571-2.656 6.093-6.27 11.425-10.84 15.996-4.57 4.57-9.902 8.183-15.996 10.839-6.094 2.657-12.617 3.985-19.57 3.985h-84.024v-168.047h84.024c6.953 0 13.476 1.328 19.57 3.984 6.094 2.657 11.426 6.27 15.996 10.84 4.57 4.571 8.184 9.903 10.84 15.996 2.656 6.094 3.984 12.617 3.984 19.571 0 3.125-.43 6.328-1.289 9.609s-2.07 6.445-3.633 9.492c-1.562 3.047-3.437 5.82-5.625 8.32-2.187 2.5-4.609 4.571-7.265 6.211 2.734 1.485 5.195 3.497 7.382 6.036 2.188 2.539 4.063 5.332 5.625 8.378 1.563 3.047 2.754 6.231 3.575 9.551.82 3.321 1.23 6.543 1.23 9.668zm-100.781 16.758h50.391c2.343 0 4.531-.43 6.562-1.289s3.809-2.051 5.332-3.574c1.524-1.524 2.715-3.301 3.574-5.332.86-2.032 1.289-4.219 1.289-6.563s-.429-4.531-1.289-6.562c-.859-2.032-2.05-3.809-3.574-5.332-1.523-1.524-3.301-2.715-5.332-3.575-2.031-.859-4.219-1.289-6.562-1.289h-50.391zm0-67.148h50.391c2.343 0 4.531-.43 6.562-1.289 2.031-.86 3.809-2.051 5.332-3.575 1.524-1.523 2.715-3.32 3.574-5.39.86-2.071 1.289-4.278 1.289-6.621 0-2.344-.429-4.532-1.289-6.563-.859-2.031-2.05-3.808-3.574-5.332-1.523-1.523-3.301-2.715-5.332-3.574-2.031-.86-4.219-1.289-6.562-1.289h-50.391z"/><path d="m608.839 79.688c0 2.968-.567 5.742-1.699 8.32-1.133 2.578-2.676 4.824-4.629 6.738s-4.239 3.438-6.856 4.57c-2.617 1.133-5.41 1.7-8.379 1.7-2.968 0-5.761-.567-8.379-1.7-2.617-1.132-4.882-2.656-6.796-4.57-1.915-1.914-3.438-4.16-4.571-6.738s-1.699-5.352-1.699-8.321c0-2.89.566-5.644 1.699-8.261s2.656-4.883 4.571-6.797c1.914-1.914 4.179-3.438 6.796-4.57 2.618-1.133 5.411-1.7 8.379-1.7 2.969 0 5.762.567 8.379 1.7 2.617 1.132 4.903 2.656 6.856 4.57s3.496 4.18 4.629 6.797c1.132 2.617 1.699 5.371 1.699 8.261zm-5.508 159.61h-32.227v-125.508h32.227z"/><path d="m690.636 239.297c-7.735 0-15-1.465-21.797-4.395-6.797-2.929-12.754-6.953-17.871-12.07s-9.141-11.074-12.071-17.871c-2.929-6.797-4.394-14.063-4.394-21.797v-37.266h-15.586v-31.875h15.586v-50.156h31.875v50.156h48.515v31.875h-48.515v37.266c0 3.359.625 6.504 1.875 9.434 1.25 2.929 2.969 5.488 5.156 7.675 2.188 2.188 4.766 3.926 7.734 5.215 2.969 1.289 6.133 1.934 9.493 1.934h24.257v31.875z"/><path d="m902.979 239.297h-33.515v-120c0-2.344-.449-4.531-1.348-6.563-.898-2.031-2.109-3.808-3.633-5.332-1.523-1.523-3.3-2.715-5.332-3.574-2.031-.859-4.218-1.289-6.562-1.289s-4.531.43-6.563 1.289c-2.031.859-3.808 2.051-5.332 3.574-1.523 1.524-2.715 3.301-3.574 5.332-.859 2.032-1.289 4.219-1.289 6.563v120h-33.633v-120c0-2.344-.43-4.531-1.289-6.563-.859-2.031-2.051-3.808-3.574-5.332-1.524-1.523-3.301-2.715-5.332-3.574s-4.219-1.289-6.563-1.289c-2.343 0-4.531.43-6.562 1.289s-3.809 2.051-5.332 3.574c-1.524 1.524-2.715 3.301-3.574 5.332-.86 2.032-1.289 4.219-1.289 6.563v120h-33.633v-120c0-6.953 1.308-13.496 3.926-19.629 2.617-6.133 6.21-11.484 10.781-16.055 4.57-4.57 9.922-8.164 16.054-10.781 6.133-2.617 12.676-3.926 19.629-3.926 6.25 0 12.266 1.114 18.047 3.34 5.781 2.227 10.977 5.449 15.586 9.668 4.61-4.219 9.785-7.441 15.528-9.668 5.742-2.226 11.738-3.34 17.988-3.34 6.953 0 13.496 1.309 19.629 3.926s11.484 6.211 16.054 10.781c4.571 4.571 8.164 9.922 10.782 16.055 2.617 6.133 3.925 12.676 3.925 19.629z"/><path d="m967.315 79.688c0 2.968-.566 5.742-1.699 8.32s-2.676 4.824-4.629 6.738-4.238 3.438-6.855 4.57c-2.617 1.133-5.41 1.7-8.379 1.7s-5.762-.567-8.379-1.7c-2.617-1.132-4.883-2.656-6.797-4.57s-3.437-4.16-4.57-6.738-1.699-5.352-1.699-8.321c0-2.89.566-5.644 1.699-8.261s2.656-4.883 4.57-6.797 4.18-3.438 6.797-4.57c2.617-1.133 5.41-1.7 8.379-1.7s5.762.567 8.379 1.7c2.617 1.132 4.902 2.656 6.855 4.57s3.496 4.18 4.629 6.797 1.699 5.371 1.699 8.261zm-5.507 159.61h-32.227v-125.508h32.227z"/><path d="m1107.47 239.297h-7.735l-12.422-17.227c-3.047 2.735-6.269 5.293-9.668 7.676-3.398 2.383-6.972 4.453-10.722 6.211s-7.598 3.145-11.543 4.16c-3.946 1.016-7.949 1.524-12.012 1.524-8.828 0-17.129-1.661-24.902-4.981-7.774-3.32-14.571-7.93-20.391-13.828s-10.41-12.891-13.769-20.977c-3.36-8.085-5.04-16.894-5.04-26.425 0-9.453 1.68-18.242 5.04-26.367 3.359-8.125 7.949-15.157 13.769-21.094 5.82-5.938 12.617-10.586 20.391-13.946 7.773-3.359 16.074-5.039 24.902-5.039 2.813 0 5.723.235 8.731.704 3.007.468 5.937 1.23 8.789 2.285 2.851 1.054 5.527 2.441 8.027 4.16s4.609 3.828 6.328 6.328v-58.594h32.227zm-32.227-63.867c0-4.375-.84-8.614-2.519-12.715-1.68-4.102-3.965-7.735-6.856-10.899s-6.269-5.703-10.137-7.617c-3.867-1.914-7.988-2.871-12.363-2.871s-8.496.781-12.363 2.344c-3.867 1.562-7.227 3.808-10.078 6.738-2.852 2.93-5.098 6.504-6.739 10.723-1.64 4.219-2.461 8.984-2.461 14.297 0 4.609.821 8.984 2.461 13.125 1.641 4.14 3.887 7.773 6.739 10.898 2.851 3.125 6.211 5.586 10.078 7.383s7.988 2.695 12.363 2.695 8.496-.957 12.363-2.871c3.868-1.914 7.246-4.453 10.137-7.617s5.176-6.797 6.856-10.898c1.679-4.102 2.519-8.34 2.519-12.715z"/><path d="m1169.58 79.688c0 2.968-.566 5.742-1.699 8.32s-2.676 4.824-4.629 6.738-4.238 3.438-6.856 4.57c-2.617 1.133-5.41 1.7-8.379 1.7-2.968 0-5.761-.567-8.378-1.7-2.618-1.132-4.883-2.656-6.797-4.57s-3.438-4.16-4.571-6.738c-1.132-2.578-1.699-5.352-1.699-8.321 0-2.89.567-5.644 1.699-8.261 1.133-2.617 2.657-4.883 4.571-6.797s4.179-3.438 6.797-4.57c2.617-1.133 5.41-1.7 8.378-1.7 2.969 0 5.762.567 8.379 1.7 2.618 1.132 4.903 2.656 6.856 4.57s3.496 4.18 4.629 6.797 1.699 5.371 1.699 8.261zm-5.508 159.61h-32.226v-125.508h32.226z"/><path d="m41.186 192.117c-4.171 0-11.186-3.298-11.186-7.361v-69.512c0-4.068 7.015-7.361 11.186-7.361s11.185 3.293 11.185 7.361v69.512c0 4.063-7.014 7.361-11.185 7.361z"/><path d="m86.467 219.517c-4.171 0-11.185-3.297-11.185-7.36v-124.314c0-4.068 7.014-7.36 11.185-7.36s11.186 3.292 11.186 7.36v124.314c0 4.063-7.015 7.36-11.186 7.36z"/><path d="m131.749 260c-4.171 0-11.186-3.297-11.186-7.36v-205.28c0-4.067 7.015-7.36 11.186-7.36s11.185 3.293 11.185 7.36v205.28c0 4.063-7.014 7.36-11.185 7.36z"/><path d="m177.03 202.75c-4.171 0-11.185-3.297-11.185-7.36v-90.78c0-4.068 7.014-7.36 11.185-7.36 4.166 0 11.186 3.292 11.186 7.36v90.78c0 4.063-7.02 7.36-11.186 7.36z"/><path d="m222.312 217.059c-4.166 0-11.186-3.298-11.186-7.361v-119.396c0-4.068 7.02-7.361 11.186-7.361s11.186 3.293 11.186 7.361v119.396c0 4.063-7.02 7.361-11.186 7.361z"/><path d="m267.593 181.895c-4.165 0-11.185-3.297-11.185-7.36v-49.07c0-4.068 7.02-7.36 11.185-7.36 4.166 0 11.186 3.292 11.186 7.36v49.07c0 4.063-7.02 7.36-11.186 7.36z"/><path d="m312.875 166.762c-4.166 0-11.186-3.297-11.186-7.36v-18.804c0-4.068 7.02-7.36 11.186-7.36s11.186 3.292 11.186 7.36v18.804c0 4.063-7.02 7.36-11.186 7.36z"/></g></svg>