<svg clip-rule="evenodd" fill-rule="evenodd" stroke-linejoin="round" stroke-miterlimit="1.41421" viewBox="0 0 350 300" xmlns="http://www.w3.org/2000/svg"><g fill="#fff" fill-rule="nonzero"><path d="m39.155 192.117c-4.171 0-11.185-3.298-11.185-7.361v-69.512c0-4.068 7.014-7.361 11.185-7.361s11.186 3.293 11.186 7.361v69.512c0 4.063-7.015 7.361-11.186 7.361z"/><path d="m84.437 219.517c-4.171 0-11.186-3.297-11.186-7.36v-124.314c0-4.068 7.015-7.36 11.186-7.36s11.186 3.292 11.186 7.36v124.314c0 4.063-7.015 7.36-11.186 7.36z"/><path d="m129.718 260c-4.17 0-11.185-3.297-11.185-7.36v-205.28c0-4.067 7.015-7.36 11.185-7.36 4.171 0 11.186 3.293 11.186 7.36v205.28c0 4.063-7.015 7.36-11.186 7.36z"/><path d="m175 202.75c-4.171 0-11.186-3.297-11.186-7.36v-90.78c0-4.068 7.015-7.36 11.186-7.36 4.166 0 11.186 3.292 11.186 7.36v90.78c0 4.063-7.02 7.36-11.186 7.36z"/><path d="m220.282 217.059c-4.166 0-11.186-3.298-11.186-7.361v-119.396c0-4.068 7.02-7.361 11.186-7.361 4.165 0 11.185 3.293 11.185 7.361v119.396c0 4.063-7.02 7.361-11.185 7.361z"/><path d="m265.563 181.895c-4.166 0-11.186-3.297-11.186-7.36v-49.07c0-4.068 7.02-7.36 11.186-7.36s11.186 3.292 11.186 7.36v49.07c0 4.063-7.02 7.36-11.186 7.36z"/><path d="m310.845 166.762c-4.166 0-11.186-3.297-11.186-7.36v-18.804c0-4.068 7.02-7.36 11.186-7.36s11.185 3.292 11.185 7.36v18.804c0 4.063-7.019 7.36-11.185 7.36z"/></g></svg>