<?xml version="1.0" encoding="UTF-8" standalone="no"?><!DOCTYPE svg PUBLIC "-//W3C//DTD SVG 1.1//EN" "http://www.w3.org/Graphics/SVG/1.1/DTD/svg11.dtd"><svg width="100%" height="100%" viewBox="0 0 830 200" version="1.1" xmlns="http://www.w3.org/2000/svg" xmlns:xlink="http://www.w3.org/1999/xlink" xml:space="preserve" style="fill-rule:evenodd;clip-rule:evenodd;stroke-linejoin:round;stroke-miterlimit:1.41421;"><g id="Layer-1"><path d="M107.271,99.324c0,-1.841 -0.969,-3.533 -2.558,-4.445l-42.355,-24.375c-0.716,-0.422 -1.519,-0.641 -2.331,-0.674l-0.438,0c-0.81,0.033 -1.612,0.252 -2.339,0.674l-42.355,24.375c-1.579,0.912 -2.561,2.604 -2.561,4.445l0.093,65.635c0,0.913 0.474,1.762 1.277,2.21c0.786,0.471 1.758,0.471 2.541,0l25.172,-14.414c1.592,-0.945 2.561,-2.614 2.561,-4.439l0,-30.664c0,-1.828 0.968,-3.52 2.554,-4.429l10.718,-6.173c0.799,-0.461 1.672,-0.687 2.564,-0.687c0.873,0 1.768,0.226 2.544,0.687l10.715,6.173c1.586,0.909 2.558,2.601 2.558,4.429l0,30.664c0,1.825 0.982,3.504 2.564,4.439l25.165,14.414c0.789,0.471 1.775,0.471 2.557,0c0.78,-0.448 1.271,-1.297 1.271,-2.21l0.083,-65.635Z" style="fill:#fff;"/><path d="M307.137,133.5c0,0.456 -0.244,0.879 -0.64,1.106l-14.548,8.386c-0.395,0.227 -0.882,0.227 -1.277,0l-14.548,-8.386c-0.397,-0.227 -0.64,-0.65 -0.64,-1.106l0,-16.799c0,-0.456 0.243,-0.879 0.639,-1.108l14.547,-8.402c0.397,-0.229 0.884,-0.229 1.281,0l14.547,8.402c0.395,0.229 0.639,0.652 0.639,1.108l0,16.799Zm3.931,-124.403c-0.793,-0.44 -1.76,-0.431 -2.543,0.029c-0.781,0.459 -1.262,1.299 -1.262,2.206l0,65c0,0.639 -0.342,1.231 -0.894,1.551c-0.554,0.32 -1.237,0.32 -1.791,0l-10.609,-6.112c-1.582,-0.913 -3.529,-0.911 -5.112,0.001l-42.371,24.453c-1.584,0.914 -2.559,2.603 -2.559,4.431l0,48.916c0,1.828 0.975,3.516 2.557,4.432l42.37,24.471c1.584,0.914 3.534,0.914 5.118,0l42.377,-24.471c1.582,-0.916 2.558,-2.604 2.558,-4.432l0,-121.936c0,-1.854 -1.004,-3.564 -2.624,-4.468l-25.215,-14.071Z" style="fill:#fff;"/><path d="M669.325,132.069c0,0.456 -0.244,0.879 -0.64,1.106l-14.548,8.386c-0.395,0.227 -0.882,0.227 -1.277,0l-14.548,-8.386c-0.397,-0.227 -0.64,-0.65 -0.64,-1.106l0,-16.799c0,-0.456 0.243,-0.879 0.639,-1.108l14.547,-8.402c0.397,-0.229 0.884,-0.229 1.281,0l14.547,8.402c0.395,0.229 0.639,0.652 0.639,1.108l0,16.799Zm29.404,-37.272l-42.572,-24.457c-1.582,-0.913 -3.529,-0.911 -5.112,0.001l-42.371,24.453c-1.584,0.914 -2.559,2.603 -2.559,4.431l0,48.916c0,1.828 0.975,3.516 2.557,4.432l42.37,24.471c1.584,0.914 3.534,0.914 5.118,0l42.377,-24.471c1.582,-0.916 2.558,-2.604 2.558,-4.432l0.258,-48.876c0,-1.854 -1.004,-3.564 -2.624,-4.468Z" style="fill:#fff;"/><path d="M785.638,132.069c0,0.456 -0.244,0.879 -0.64,1.106l-14.548,8.386c-0.395,0.227 -0.882,0.227 -1.277,0l-14.548,-8.386c-0.397,-0.227 -0.64,-0.65 -0.64,-1.106l0,-16.799c0,-0.456 0.243,-0.879 0.639,-1.108l14.547,-8.402c0.397,-0.229 0.884,-0.229 1.281,0l14.547,8.402c0.395,0.229 0.639,0.652 0.639,1.108l0,16.799Zm29.404,-37.272l-42.572,-24.457c-1.582,-0.913 -3.529,-0.911 -5.112,0.001l-42.371,24.453c-1.584,0.914 -2.559,2.603 -2.559,4.431l0,48.916c0,1.828 0.975,3.516 2.557,4.432l42.37,24.471c1.584,0.914 3.534,0.914 5.118,0l42.377,-24.471c1.582,-0.916 2.558,-2.604 2.558,-4.432l0.258,-48.876c0,-1.854 -1.004,-3.564 -2.624,-4.468Z" style="fill:#fff;"/><path d="M452.159,116.262c1.576,-0.915 2.546,-2.601 2.546,-4.424l0,-11.854c0,-1.823 -0.97,-3.51 -2.548,-4.425l-42.099,-24.443c-1.584,-0.921 -3.539,-0.922 -5.127,-0.007l-42.356,24.453c-1.583,0.914 -2.558,2.602 -2.558,4.43l0,48.903c0,1.84 0.987,3.537 2.584,4.446l42.093,23.985c1.552,0.886 3.455,0.896 5.017,0.028l25.46,-14.151c0.808,-0.45 1.311,-1.297 1.316,-2.219c0.006,-0.923 -0.485,-1.777 -1.284,-2.236l-42.625,-24.465c-0.796,-0.456 -1.286,-1.304 -1.286,-2.219l0,-15.326c0,-0.914 0.488,-1.76 1.281,-2.216l13.266,-7.648c0.789,-0.456 1.764,-0.456 2.554,0l13.272,7.648c0.793,0.456 1.28,1.302 1.28,2.216l0,12.058c0,0.916 0.49,1.762 1.283,2.218c0.793,0.458 1.77,0.454 2.561,-0.005l25.37,-14.747Z" style="fill:#fff;"/><path d="M406.87,113.971c0.304,-0.176 0.678,-0.176 0.982,0l8.13,4.69c0.304,0.176 0.491,0.5 0.491,0.851l0,9.388c0,0.352 -0.187,0.675 -0.491,0.851l-8.13,4.691c-0.304,0.176 -0.678,0.176 -0.982,0l-8.124,-4.691c-0.304,-0.176 -0.491,-0.499 -0.491,-0.851l0,-9.388c0,-0.351 0.187,-0.675 0.491,-0.851l8.124,-4.69Z" style="fill:#fff;"/><path d="M190.91,133.108c0,0.456 -0.244,0.879 -0.64,1.106l-14.548,8.386c-0.395,0.227 -0.882,0.227 -1.277,0l-14.548,-8.386c-0.397,-0.227 -0.64,-0.65 -0.64,-1.106l0,-16.799c0,-0.456 0.243,-0.879 0.639,-1.108l14.547,-8.402c0.397,-0.229 0.884,-0.229 1.281,0l14.547,8.402c0.395,0.229 0.639,0.652 0.639,1.108l0,16.799Zm29.404,-37.272l-42.572,-24.457c-1.582,-0.913 -3.529,-0.911 -5.112,0.001l-42.371,24.453c-1.584,0.914 -2.559,2.603 -2.559,4.431l0,48.916c0,1.828 0.975,3.516 2.557,4.432l42.37,24.471c1.584,0.914 3.534,0.914 5.118,0l42.377,-24.471c1.582,-0.916 2.558,-2.604 2.558,-4.432l0.258,-48.876c0,-1.854 -1.004,-3.564 -2.624,-4.468Z" style="fill:#fff;"/><path d="M581.121,53.532c0,0 25.469,-14.755 25.521,-14.793c2.7,-1.955 0.622,-3.621 -1.361,-5.063c-0.077,-0.056 -40.891,-25.037 -40.891,-25.037c-1.584,-0.921 -3.539,-0.922 -5.127,-0.007l-42.356,24.453c-1.583,0.914 -2.558,2.602 -2.558,4.43c0,0 0.513,113.673 0.651,137.024c0.018,2.956 3.035,3.499 4.452,2.701c4.735,-2.666 20.313,-10.775 24.676,-13.573c0.995,-0.638 1.471,-2.031 1.5,-3.212c0.231,-9.478 -0.377,-44.569 -0.113,-53.652c0.018,-0.632 1.132,-1.135 1.696,-0.85c0.209,0.105 16.011,9.024 16.153,9.069c1.721,0.546 2.926,0.664 4.488,-0.204l22.965,-13.488c0.808,-0.45 1.311,-1.297 1.316,-2.219c0.006,-0.923 -0.485,-1.777 -1.284,-2.236l-43.939,-25.069c-0.796,-0.456 -1.286,-1.304 -1.286,-2.219l0,-15.326c0,-0.914 0.488,-1.76 1.281,-2.216l13.266,-7.648c0.789,-0.456 1.764,-0.456 2.554,0c0,0 15.042,8.684 15.835,9.14c0.793,0.458 1.77,0.454 2.561,-0.005Z" style="fill:#fff;"/></g></svg>