<?xml version="1.0" encoding="utf-8"?><svg width='120px' height='120px' xmlns="http://www.w3.org/2000/svg" viewBox="0 0 100 100" preserveAspectRatio="xMidYMid" class="uil-triangle"><rect x="0" y="0" width="100" height="100" fill="none" class="bk"></rect><path d="M34.5,52.4c-0.8,1.4-2.2,1.4-3,0L17.2,27.6C16.4,26.2,17,25,18.7,25h28.6c1.6,0,2.3,1.2,1.5,2.6L34.5,52.4z" fill="#ff4136"><animateTransform attributeName="transform" type="rotate" from="0 33 35" to="120 33 35" repeatCount="indefinite" dur="1s"></animateTransform></path><path d="M68.5,52.4c-0.8,1.4-2.2,1.4-3,0L51.2,27.6C50.4,26.2,51,25,52.7,25h28.6c1.7,0,2.3,1.2,1.5,2.6L68.5,52.4z" fill="#ff4136"><animateTransform attributeName="transform" type="rotate" from="0 67 35" to="120 67 35" repeatCount="indefinite" dur="1s"></animateTransform></path><path d="M51.5,82.4c-0.8,1.4-2.2,1.4-3,0L34.2,57.6C33.4,56.2,34,55,35.7,55h28.6c1.7,0,2.3,1.2,1.5,2.6L51.5,82.4z" fill="#ff4136"><animateTransform attributeName="transform" type="rotate" from="0 50 65" to="120 50 65" repeatCount="indefinite" dur="1s"></animateTransform></path></svg>