<svg version="1" xmlns="http://www.w3.org/2000/svg" width="933.333" height="933.333" viewBox="0 0 700.000000 700.000000"><path d="M36.9 25.5c-4.6 1.3-10.4 7.3-11.5 12.1-.6 2.4-.9 120.5-.9 313.9.1 290.9.2 310.2 1.8 313.2.9 1.8 2.7 4.2 4 5.3 5.6 5.3-15.5 5 321.1 4.8l312.1-.3 3.7-2.5c2-1.4 4.7-4.3 6-6.5l2.3-4v-310c.1-184.4-.3-311.4-.8-313.5-1.3-5.1-6.2-10.7-10.5-12.1-3-1.1-65.3-1.3-313.8-1.4-194 0-311.4.4-313.5 1zM151.1 224c.1 89.9.1 163.8 0 164.2-.2 1.8 5.9 6.8 8.6 6.9 1.5 0 7.1.1 12.3.2l9.5.2V516c.1 66.3-.1 121.1-.3 121.7-.3 1-13.3 1.3-60.3 1.3H61l-.1-3.3c0-1.7-.1-131.6-.1-288.5-.1-200.4.2-285.6.9-286 .6-.4 21-.7 45.2-.7H151l.1 163.5zM304.8 60.9c.9.1 1.2 33.6 1.2 164.2v164.1l2.9 2.9c3.2 3.1 3.9 3.2 18.3 3.1 4.6-.1 8 .3 8.4 1 .5.8.9 229.7.5 241-.1 1.7-3.7 1.8-62.1 1.8h-62v-6.8c-.1-9.2-.1-227.7 0-232.9v-4.2l9.8.1c14.1 0 13.9.1 17.3-3l3.2-2.8V225.2c0-146.2.2-164.1 1.5-164.4 1.3-.2 56.9-.1 61 .1zm151.7 0c2 .1 2 .8 2 163.5 0 173.3-.2 166.4 4.6 169.4 1.1.7 6.4 1.3 13.4 1.4l11.5.2v6c.1 7.5.1 221.4 0 230.8v6.8H366V395.3l11.4-.1c12.2 0 15.8-1.2 17.3-5.5.4-1.2.8-75.6.9-165.2.1-89.7.2-163.2.3-163.5.1-.4 53-.5 60.6-.1zm181.5 0c1.3.1 1.5 32.7 1.3 287.8 0 158.3-.1 288.4-.2 289-.1 1-12.8 1.3-60 1.3h-60l.2-121.9.1-121.9H531c12.2 0 15.8-1 17.6-5 .4-.9.8-75.3.9-165.2l.1-163.4 2.3-.6c1.8-.4 80.5-.5 86.1-.1z"/></svg>