<svg version="1" xmlns="http://www.w3.org/2000/svg" width="1365.333" height="1365.333" viewBox="0 0 1024.000000 1024.000000"><path d="M501.6 12.7c-7.1 1.6-10.8 3.5-41.6 21.3-14 8.2-27.3 15.9-29.6 17.2-7.5 4.3-39.9 23-41.4 23.9-1.6.9-7.3 4.2-35 20.1-9.1 5.3-20.8 12-26 15-5.2 3-50.4 29.2-100.5 58-50 28.9-95 54.9-100 57.8-4.9 2.9-11.5 6.6-14.5 8.3-27.2 15.1-36.4 25.1-39.4 42.8-.8 4.7-1.1 71.4-1 237.5l.2 230.9 2.1 6.6c4 12.7 11.8 21.8 24.6 29.2 3.3 1.8 11.4 6.5 18 10.4 6.6 3.8 14 8.1 16.5 9.5 2.5 1.4 17.6 10.1 33.5 19.3 93.5 54 118.3 68.4 121.4 70.1 1.8 1.1 4.1 2.3 5 2.9.9.5 7 4.1 13.6 7.9 6.6 3.7 16.1 9.2 21 12.1 5 2.9 23.6 13.7 41.5 24.1 17.9 10.3 48.5 27.9 68 39.2 47.2 27.2 44.6 25.8 52 29.6 11.9 6.1 25.5 7.3 37 3.3 3.6-1.3 37.1-20 75-41.9 37.7-21.8 70.8-40.8 73.5-42.3 2.8-1.5 5.7-3.4 6.6-4.1.8-.8 1.8-1.4 2.1-1.4.3 0 11.5-6.3 24.9-14.1 13.4-7.8 26.2-15.1 28.4-16.4 3.5-1.9 33.7-19.4 118.5-68.5 10.7-6.2 21.1-12.2 23-13.2 54.5-31 59.9-34.7 66.1-45.4 6.8-12 6.2 11.2 6.4-247.4.1-136.2-.2-235.5-.8-238.5-1.9-10.9-9.5-23.1-18-29.2-3.3-2.4-45.3-27-65.7-38.6-1.9-1-16.5-9.5-32.5-18.7-15.9-9.2-30.6-17.7-32.5-18.8-5.5-3.1-53.2-30.6-67-38.7-23.3-13.5-117.5-67.8-121.6-70.1-2.2-1.2-5.8-3.3-8-4.6-2.1-1.4-6.4-3.8-9.4-5.5-3-1.7-17.9-10.2-33-18.9-30.9-17.9-34.9-19.9-44.2-21.4-7.5-1.1-9.5-1.1-17.2.7z"/></svg>