<svg height="1000pt" preserveAspectRatio="xMidYMid meet" viewBox="0 0 1000 1000" width="1000pt" xmlns="http://www.w3.org/2000/svg"><g transform="matrix(.1 0 0 -.1 0 1000)"><path d="m3575 8196c-103-33-191-98-214-159-8-20-11-941-11-3043 0-2580 2-3019 14-3042 46-87 190-162 312-162 111 0 259 72 306 148l22 37 1 3012c0 1657-3 3026-7 3042-9 34-60 89-109 119-95 57-223 77-314 48z"/><path d="m2244 7010c-99-34-185-97-206-150-6-16-10-680-10-1867v-1842l28-40c59-81 179-135 304-135 78 0 91 3 162 37 73 35 153 107 156 139 0 7 1 837 2 1845 1 2020 6 1869-64 1931-103 90-251 123-372 82z"/><path d="m6207 6936c-78-26-137-65-181-119l-30-38-1-1768c0-1679 1-1769 18-1807 35-75 169-150 284-159 151-11 333 92 348 196 3 24 5 832 3 1794l-3 1750-22 32c-13 17-47 47-75 66-111 73-226 91-341 53z"/><path d="m4900 6525c-94-30-166-78-200-132l-27-42 1-1353 1-1353 23-38c28-44 94-92 166-119 60-23 169-31 223-16 38 10 120 46 138 60 59 45 76 65 89 101 13 37 15 212 14 1375l-1 1334-21 41c-56 109-273 186-406 142z"/><path d="m975 6226c-5-2-30-10-55-17-96-29-192-102-207-156-9-36-10-2069 0-2105 24-89 216-187 343-174 69 7 81 10 149 42 73 35 141 101 148 146 3 18 6 493 5 1055 0 1127 5 1049-65 1111-36 32-124 79-167 89-29 6-139 13-151 9z"/><path d="m7545 5915c-91-27-182-91-211-146-22-43-22-1495 0-1536 44-84 192-163 306-163 94 0 230 55 283 115 51 56 49 25 49 820 1 709 0 743-18 771-74 114-272 181-409 139z"/><path d="m8875 5474c-68-20-145-63-185-104-49-50-50-57-47-405l2-281 33-42c25-31 58-54 120-85 82-40 92-42 172-41 76 0 93 4 160 36 84 40 146 95 158 140 4 17 7 162 7 323-1 319 0 311-62 369-41 38-131 83-193 95-65 13-110 12-165-5z"/></g></svg>